<svg width="84" height="80" viewBox="0 0 84 80" fill="none" xmlns="http://www.w3.org/2000/svg">
<mask id="path-1-inside-1_4_139" fill="white">
<path d="M0.361476 48.8303C0.296161 45.6275 -0.463244 42.3493 0.436636 39.612C1.77064 35.5542 2.48428 31.2873 4.39514 27.3852C5.57926 24.9672 6.10663 22.2393 7.7008 19.9779C12.1268 13.6994 17.7141 8.92942 25.1353 6.47565C28.2564 5.44366 31.1595 3.7556 34.5219 3.63093C34.5219 3.20814 34.5594 3.00662 34.5162 2.82398C33.9093 0.254706 34.3967 -0.272853 37.0648 0.11352C39.0382 0.39928 41.0413 0.569547 42.9736 1.03032C47.5377 2.11861 52.3638 1.87791 56.748 3.95575C58.772 4.91493 60.4328 6.2546 62.1532 7.59969C67.9826 12.1571 73.2231 17.3296 77.8788 23.037C81.1658 27.0664 84.14 31.438 83.9949 36.9766C83.876 41.5128 83.3411 45.9964 81.9844 50.3957C80.5384 55.0843 78.3148 59.2649 75.2171 63.0549C72.9217 65.8634 70.2014 68.1624 67.1098 69.986C62.2006 72.8817 56.9793 75.2988 51.5441 76.8522C43.8486 79.0517 35.9641 81.1441 27.8343 79.279C24.8955 78.6048 21.941 77.605 19.0475 76.9876C16.1883 76.3775 13.8793 75.1964 11.6036 73.7278C7.04863 70.7884 4.51512 66.2772 2.73259 61.3702C1.2906 57.4005 0.154004 53.3119 0.361476 48.8303ZM68.5129 17.2211C66.7731 14.8126 64.2116 13.3118 62.0554 11.3656C56.9534 6.7601 51.2354 4.20318 44.2321 5.19032C42.2396 5.47119 40.3307 4.83256 38.2214 5.23224C31.3375 6.53662 24.9138 8.84952 18.8755 12.3431C15.4033 14.3521 12.8711 17.2865 10.5441 20.4463C10.2289 20.8743 9.80832 21.3066 10.2247 21.8581C10.6366 22.4037 11.1684 22.8275 11.9287 22.6191C12.9187 22.3477 13.9549 22.284 14.8882 22.6027C17.2791 23.419 19.0548 22.6908 20.7842 20.9609C22.7521 18.9925 27.3106 19.2077 28.7231 21.1978C29.9163 22.8791 30.836 24.6487 30.804 26.8619C30.7765 28.7638 29.8143 30.6838 30.9243 32.6163C31.2259 33.1415 30.647 33.8709 30.2953 34.4311C29.4106 35.8401 28.1221 36.7594 26.5511 37.2452C24.3336 37.9309 22.0933 38.5433 19.8658 39.197C17.8305 39.7942 16.6709 42.246 17.7781 44.0521C18.5347 45.2865 19.2107 46.564 19.992 47.9959C22.0097 46.6672 22.1551 48.1381 22.5069 49.5435C23.101 51.9176 25.2378 52.6163 27.092 51.0042C27.8929 50.3078 28.6428 50.14 29.4062 50.7038C31.3924 52.1705 33.2059 53.8116 34.0694 56.2391C35.0225 58.9188 34.8149 61.3715 33.0342 63.7266C31.4698 65.7957 30.7204 68.0659 32.4201 70.51C32.9371 71.2533 32.5871 71.9609 32.2894 72.7463C31.6736 74.3707 29.742 74.8243 29.0891 76.4062C33.0188 77.8908 38.608 77.36 42.1066 75.1931C42.6392 74.8632 43.1733 74.7103 43.8037 74.7747C48.0646 75.2095 52.0105 74.1872 55.9516 72.5854C58.6332 71.4955 60.687 69.4723 63.7819 68.7935C66.951 68.0985 69.6404 65.4252 72.0009 62.6625C71.1176 62.1472 70.693 61.607 71.2684 60.7951C72.3165 59.3162 71.7704 58.1676 70.6729 56.9262C68.5329 54.5055 66.4523 52.036 64.247 49.6686C63.1493 48.4901 63.2859 46.2252 61.5885 45.6598C59.8797 45.0905 58.3636 46.6209 56.6841 46.9507C56.557 46.9757 56.444 47.064 56.319 47.1073C54.188 47.8456 51.6383 46.4721 51.3058 44.2804C50.7708 40.754 51.8861 37.5897 53.9799 34.8255C55.2945 33.09 56.983 31.6662 59.1979 31.0558C60.0983 30.8076 61.0785 30.7764 61.4258 31.6892C61.7248 32.4748 61.1504 33.2076 60.2477 33.4541C55.5857 34.7275 52.8637 38.4112 53.0251 43.1541C53.0682 44.4191 53.5278 45.0316 54.8693 45.234C56.2045 45.4354 57.1713 44.7854 58.2526 44.3274C60.7348 43.2761 63.0623 43.4519 63.7737 45.2178C65.5512 49.6301 69.6332 52.1479 72.1777 55.913C73.3821 57.6953 74.6607 59.2509 73.0447 61.4493C74.5106 60.0951 75.6117 58.5947 75.8669 56.6421C75.9367 56.1082 76.1101 55.7469 76.5826 55.5741C77.435 55.2624 77.7107 54.5314 78.0436 53.7958C79.8563 49.7895 81.004 45.6147 81.3077 41.2236C81.4864 38.6398 81.4957 36.0627 80.8382 33.5277C80.1069 30.7082 79.1125 29.8707 76.8605 30.3399C73.2555 31.0909 69.6829 31.1804 66.1343 30.061C65.2736 29.7895 64.4716 29.7631 63.6717 30.3319C63.2215 30.652 62.6808 31.0674 62.0457 30.6228C61.6882 30.0119 61.9986 29.3734 62.4536 29.2955C64.0056 29.0296 65.3622 27.886 67.1755 28.6666C69.2329 29.5523 71.4716 29.2661 73.6673 28.9106C72.1086 28.6511 71.2946 27.3978 70.2468 26.5395C69.6506 26.0511 69.1301 25.8272 68.4658 26.1878C67.1134 26.9218 65.944 26.6923 64.9687 25.4547C62.8363 27.3071 60.2688 28.1361 58.0536 29.5711C57.4443 29.9658 56.7956 30.0334 56.2664 29.4021C54.9279 27.8055 55.8419 24.9589 57.8877 24.3537C59.631 23.8379 60.5849 22.8815 60.3328 20.8791C60.0622 18.7296 61.1929 17.0385 62.6829 15.6354C63.71 14.6683 64.6688 14.8887 65.4639 16.0806C63.4667 16.4098 61.8405 18.6666 62.104 20.7436C62.4846 23.7431 61.9195 24.6698 59.0878 25.8459C58.499 26.0905 57.6099 26.1513 57.7605 27.4141C59.2665 26.7055 60.7892 26.6008 62.1194 25.5773C63.4006 24.5915 64.7849 22.8355 66.7786 24.5986C67.1018 24.8844 67.535 24.7376 67.9001 24.5215C69.5882 23.5223 70.8906 24.2618 71.8559 25.598C72.6717 26.7273 73.6578 27.1397 74.928 26.8432C75.4871 26.7127 75.7482 26.0917 75.6101 25.5471C75.2824 24.2542 74.8828 22.9588 73.3279 22.5901C72.9416 22.4985 72.5337 22.4936 72.1512 22.3914C71.6823 22.2661 71.1072 21.9438 71.2141 21.4971C71.7498 19.2581 69.8826 18.5685 68.5129 17.2211ZM21.7524 66.2167C23.0968 68.8751 25.5453 70.8175 26.6101 73.6676C26.7915 74.1533 27.2456 74.4492 27.9111 74.3093C29.6409 73.9454 30.7117 72.0087 29.9829 70.3817C28.839 67.8278 29.2747 65.373 30.7907 63.2238C32.9724 60.1309 33.0072 57.3053 30.5059 54.4807C29.7675 53.6469 29.0338 53.1384 27.7593 53.847C25.6587 55.015 22.5938 54.4265 21.6065 52.3481C20.3994 49.807 18.2509 48.1785 16.5868 46.1C15.1604 44.3183 15.0659 42.5699 15.8772 40.5474C16.682 38.5414 17.8078 37.2939 20.213 37.1541C22.9495 36.995 25.4874 35.9347 27.7061 34.2652C28.4553 33.7015 29.35 33.0073 28.7164 31.9783C27.9034 30.658 28.414 29.6414 28.981 28.4659C29.919 26.5211 28.9818 23.741 27.0313 22.2859C25.8962 21.4391 22.5238 21.7932 21.3427 22.9917C19.5813 24.7791 17.5643 25.389 15.181 24.5347C14.3833 24.2487 13.6087 24.1972 12.8456 24.4946C11.733 24.9281 10.8256 24.7385 9.92457 23.9416C8.95508 23.0843 8.3422 23.4 7.91743 24.6267C7.22551 26.6249 6.28203 28.5384 5.62289 30.5456C4.67488 33.4326 3.60094 36.2988 3.17115 39.3247C2.97601 40.6986 3.24834 41.7181 5.12962 41.1866C7.044 40.6458 8.27649 41.4008 9.33552 43.2045C10.3147 44.8723 11.2781 47.1658 14.1761 46.24C14.9742 45.9851 15.8033 46.5144 16.4089 47.2662C18.5731 49.9533 19.3132 53.1933 18.7249 56.3433C18.1324 59.5163 17.9563 62.2291 20.4249 64.6186C20.852 65.0319 21.2021 65.524 21.7524 66.2167ZM19.7792 66.6024C18.8437 65.5651 17.9924 64.4798 17.5099 63.1402C17.3147 62.5981 17.0728 61.7282 16.431 61.908C15.1548 62.2656 15.1289 61.2039 14.5517 60.6838C12.3985 58.7434 11.9547 54.7097 7.789 55.1796C7.25137 55.2402 6.85717 54.6487 6.84735 54.0689C6.83589 53.3907 7.38507 53.2488 7.93347 53.1452C9.39927 52.8682 10.7624 53.0243 11.7009 54.3064C12.6767 55.6394 14.0618 56.5198 15.3679 57.9822C15.3679 56.7864 15.3679 55.9112 15.3679 55.0924C16.3808 54.7723 16.1375 56.0535 16.8115 56.0976C16.7393 54.6607 16.7173 53.3421 16.5959 52.0327C16.4465 50.4205 14.4669 47.994 13.4296 48.2975C11.6938 48.8054 10.6946 48.1215 9.73559 46.8028C8.93137 45.697 7.65383 44.962 7.2203 43.5379C7.08072 43.0794 6.58333 42.8583 6.0702 42.937C4.91825 43.1136 3.77076 43.3195 2.46856 43.5392C2.93205 44.8201 2.45084 45.973 2.5471 47.1488C2.8865 51.2936 3.44204 55.3597 4.77553 59.3632C6.37121 64.1539 8.36893 68.5027 12.7683 71.4056C16.5232 73.8832 20.6699 75.1663 25.417 76.1051C24.5723 74.4785 23.9555 73.254 23.3013 72.0498C23.0496 71.5866 22.8117 70.9811 22.3969 70.7645C20.7786 69.9196 20.4997 68.3118 19.7792 66.6024Z"/>
</mask>
<path d="M0.361476 48.8303C0.296161 45.6275 -0.463244 42.3493 0.436636 39.612C1.77064 35.5542 2.48428 31.2873 4.39514 27.3852C5.57926 24.9672 6.10663 22.2393 7.7008 19.9779C12.1268 13.6994 17.7141 8.92942 25.1353 6.47565C28.2564 5.44366 31.1595 3.7556 34.5219 3.63093C34.5219 3.20814 34.5594 3.00662 34.5162 2.82398C33.9093 0.254706 34.3967 -0.272853 37.0648 0.11352C39.0382 0.39928 41.0413 0.569547 42.9736 1.03032C47.5377 2.11861 52.3638 1.87791 56.748 3.95575C58.772 4.91493 60.4328 6.2546 62.1532 7.59969C67.9826 12.1571 73.2231 17.3296 77.8788 23.037C81.1658 27.0664 84.14 31.438 83.9949 36.9766C83.876 41.5128 83.3411 45.9964 81.9844 50.3957C80.5384 55.0843 78.3148 59.2649 75.2171 63.0549C72.9217 65.8634 70.2014 68.1624 67.1098 69.986C62.2006 72.8817 56.9793 75.2988 51.5441 76.8522C43.8486 79.0517 35.9641 81.1441 27.8343 79.279C24.8955 78.6048 21.941 77.605 19.0475 76.9876C16.1883 76.3775 13.8793 75.1964 11.6036 73.7278C7.04863 70.7884 4.51512 66.2772 2.73259 61.3702C1.2906 57.4005 0.154004 53.3119 0.361476 48.8303ZM68.5129 17.2211C66.7731 14.8126 64.2116 13.3118 62.0554 11.3656C56.9534 6.7601 51.2354 4.20318 44.2321 5.19032C42.2396 5.47119 40.3307 4.83256 38.2214 5.23224C31.3375 6.53662 24.9138 8.84952 18.8755 12.3431C15.4033 14.3521 12.8711 17.2865 10.5441 20.4463C10.2289 20.8743 9.80832 21.3066 10.2247 21.8581C10.6366 22.4037 11.1684 22.8275 11.9287 22.6191C12.9187 22.3477 13.9549 22.284 14.8882 22.6027C17.2791 23.419 19.0548 22.6908 20.7842 20.9609C22.7521 18.9925 27.3106 19.2077 28.7231 21.1978C29.9163 22.8791 30.836 24.6487 30.804 26.8619C30.7765 28.7638 29.8143 30.6838 30.9243 32.6163C31.2259 33.1415 30.647 33.8709 30.2953 34.4311C29.4106 35.8401 28.1221 36.7594 26.5511 37.2452C24.3336 37.9309 22.0933 38.5433 19.8658 39.197C17.8305 39.7942 16.6709 42.246 17.7781 44.0521C18.5347 45.2865 19.2107 46.564 19.992 47.9959C22.0097 46.6672 22.1551 48.1381 22.5069 49.5435C23.101 51.9176 25.2378 52.6163 27.092 51.0042C27.8929 50.3078 28.6428 50.14 29.4062 50.7038C31.3924 52.1705 33.2059 53.8116 34.0694 56.2391C35.0225 58.9188 34.8149 61.3715 33.0342 63.7266C31.4698 65.7957 30.7204 68.0659 32.4201 70.51C32.9371 71.2533 32.5871 71.9609 32.2894 72.7463C31.6736 74.3707 29.742 74.8243 29.0891 76.4062C33.0188 77.8908 38.608 77.36 42.1066 75.1931C42.6392 74.8632 43.1733 74.7103 43.8037 74.7747C48.0646 75.2095 52.0105 74.1872 55.9516 72.5854C58.6332 71.4955 60.687 69.4723 63.7819 68.7935C66.951 68.0985 69.6404 65.4252 72.0009 62.6625C71.1176 62.1472 70.693 61.607 71.2684 60.7951C72.3165 59.3162 71.7704 58.1676 70.6729 56.9262C68.5329 54.5055 66.4523 52.036 64.247 49.6686C63.1493 48.4901 63.2859 46.2252 61.5885 45.6598C59.8797 45.0905 58.3636 46.6209 56.6841 46.9507C56.557 46.9757 56.444 47.064 56.319 47.1073C54.188 47.8456 51.6383 46.4721 51.3058 44.2804C50.7708 40.754 51.8861 37.5897 53.9799 34.8255C55.2945 33.09 56.983 31.6662 59.1979 31.0558C60.0983 30.8076 61.0785 30.7764 61.4258 31.6892C61.7248 32.4748 61.1504 33.2076 60.2477 33.4541C55.5857 34.7275 52.8637 38.4112 53.0251 43.1541C53.0682 44.4191 53.5278 45.0316 54.8693 45.234C56.2045 45.4354 57.1713 44.7854 58.2526 44.3274C60.7348 43.2761 63.0623 43.4519 63.7737 45.2178C65.5512 49.6301 69.6332 52.1479 72.1777 55.913C73.3821 57.6953 74.6607 59.2509 73.0447 61.4493C74.5106 60.0951 75.6117 58.5947 75.8669 56.6421C75.9367 56.1082 76.1101 55.7469 76.5826 55.5741C77.435 55.2624 77.7107 54.5314 78.0436 53.7958C79.8563 49.7895 81.004 45.6147 81.3077 41.2236C81.4864 38.6398 81.4957 36.0627 80.8382 33.5277C80.1069 30.7082 79.1125 29.8707 76.8605 30.3399C73.2555 31.0909 69.6829 31.1804 66.1343 30.061C65.2736 29.7895 64.4716 29.7631 63.6717 30.3319C63.2215 30.652 62.6808 31.0674 62.0457 30.6228C61.6882 30.0119 61.9986 29.3734 62.4536 29.2955C64.0056 29.0296 65.3622 27.886 67.1755 28.6666C69.2329 29.5523 71.4716 29.2661 73.6673 28.9106C72.1086 28.6511 71.2946 27.3978 70.2468 26.5395C69.6506 26.0511 69.1301 25.8272 68.4658 26.1878C67.1134 26.9218 65.944 26.6923 64.9687 25.4547C62.8363 27.3071 60.2688 28.1361 58.0536 29.5711C57.4443 29.9658 56.7956 30.0334 56.2664 29.4021C54.9279 27.8055 55.8419 24.9589 57.8877 24.3537C59.631 23.8379 60.5849 22.8815 60.3328 20.8791C60.0622 18.7296 61.1929 17.0385 62.6829 15.6354C63.71 14.6683 64.6688 14.8887 65.4639 16.0806C63.4667 16.4098 61.8405 18.6666 62.104 20.7436C62.4846 23.7431 61.9195 24.6698 59.0878 25.8459C58.499 26.0905 57.6099 26.1513 57.7605 27.4141C59.2665 26.7055 60.7892 26.6008 62.1194 25.5773C63.4006 24.5915 64.7849 22.8355 66.7786 24.5986C67.1018 24.8844 67.535 24.7376 67.9001 24.5215C69.5882 23.5223 70.8906 24.2618 71.8559 25.598C72.6717 26.7273 73.6578 27.1397 74.928 26.8432C75.4871 26.7127 75.7482 26.0917 75.6101 25.5471C75.2824 24.2542 74.8828 22.9588 73.3279 22.5901C72.9416 22.4985 72.5337 22.4936 72.1512 22.3914C71.6823 22.2661 71.1072 21.9438 71.2141 21.4971C71.7498 19.2581 69.8826 18.5685 68.5129 17.2211ZM21.7524 66.2167C23.0968 68.8751 25.5453 70.8175 26.6101 73.6676C26.7915 74.1533 27.2456 74.4492 27.9111 74.3093C29.6409 73.9454 30.7117 72.0087 29.9829 70.3817C28.839 67.8278 29.2747 65.373 30.7907 63.2238C32.9724 60.1309 33.0072 57.3053 30.5059 54.4807C29.7675 53.6469 29.0338 53.1384 27.7593 53.847C25.6587 55.015 22.5938 54.4265 21.6065 52.3481C20.3994 49.807 18.2509 48.1785 16.5868 46.1C15.1604 44.3183 15.0659 42.5699 15.8772 40.5474C16.682 38.5414 17.8078 37.2939 20.213 37.1541C22.9495 36.995 25.4874 35.9347 27.7061 34.2652C28.4553 33.7015 29.35 33.0073 28.7164 31.9783C27.9034 30.658 28.414 29.6414 28.981 28.4659C29.919 26.5211 28.9818 23.741 27.0313 22.2859C25.8962 21.4391 22.5238 21.7932 21.3427 22.9917C19.5813 24.7791 17.5643 25.389 15.181 24.5347C14.3833 24.2487 13.6087 24.1972 12.8456 24.4946C11.733 24.9281 10.8256 24.7385 9.92457 23.9416C8.95508 23.0843 8.3422 23.4 7.91743 24.6267C7.22551 26.6249 6.28203 28.5384 5.62289 30.5456C4.67488 33.4326 3.60094 36.2988 3.17115 39.3247C2.97601 40.6986 3.24834 41.7181 5.12962 41.1866C7.044 40.6458 8.27649 41.4008 9.33552 43.2045C10.3147 44.8723 11.2781 47.1658 14.1761 46.24C14.9742 45.9851 15.8033 46.5144 16.4089 47.2662C18.5731 49.9533 19.3132 53.1933 18.7249 56.3433C18.1324 59.5163 17.9563 62.2291 20.4249 64.6186C20.852 65.0319 21.2021 65.524 21.7524 66.2167ZM19.7792 66.6024C18.8437 65.5651 17.9924 64.4798 17.5099 63.1402C17.3147 62.5981 17.0728 61.7282 16.431 61.908C15.1548 62.2656 15.1289 61.2039 14.5517 60.6838C12.3985 58.7434 11.9547 54.7097 7.789 55.1796C7.25137 55.2402 6.85717 54.6487 6.84735 54.0689C6.83589 53.3907 7.38507 53.2488 7.93347 53.1452C9.39927 52.8682 10.7624 53.0243 11.7009 54.3064C12.6767 55.6394 14.0618 56.5198 15.3679 57.9822C15.3679 56.7864 15.3679 55.9112 15.3679 55.0924C16.3808 54.7723 16.1375 56.0535 16.8115 56.0976C16.7393 54.6607 16.7173 53.3421 16.5959 52.0327C16.4465 50.4205 14.4669 47.994 13.4296 48.2975C11.6938 48.8054 10.6946 48.1215 9.73559 46.8028C8.93137 45.697 7.65383 44.962 7.2203 43.5379C7.08072 43.0794 6.58333 42.8583 6.0702 42.937C4.91825 43.1136 3.77076 43.3195 2.46856 43.5392C2.93205 44.8201 2.45084 45.973 2.5471 47.1488C2.8865 51.2936 3.44204 55.3597 4.77553 59.3632C6.37121 64.1539 8.36893 68.5027 12.7683 71.4056C16.5232 73.8832 20.6699 75.1663 25.417 76.1051C24.5723 74.4785 23.9555 73.254 23.3013 72.0498C23.0496 71.5866 22.8117 70.9811 22.3969 70.7645C20.7786 69.9196 20.4997 68.3118 19.7792 66.6024Z" stroke="#DC3436" stroke-width="2" mask="url(#path-1-inside-1_4_139)"/>
</svg>
